HIERARCHY
ROOT Hips
{
 OFFSET 0.000000 0.000000 0.000000
 CHANNELS 6 Xposition Yposition Zposition Yrotation Xrotation Zrotation
 JOINT Chest
 {
  OFFSET 0.000000 10.354800 0.006500
  CHANNELS 3 Yrotation Xrotation Zrotation
  JOINT Chest2
  {
   OFFSET 0.000000 10.435800 -0.013200
   CHANNELS 3 Yrotation Xrotation Zrotation
   JOINT Chest3
   {
    OFFSET 0.000000 10.393700 0.000000
    CHANNELS 3 Yrotation Xrotation Zrotation
    JOINT Chest4
    {
     OFFSET 0.000000 10.383100 0.000000
     CHANNELS 3 Yrotation Xrotation Zrotation
     JOINT Neck
     {
      OFFSET 0.000000 15.694000 0.000000
      CHANNELS 3 Yrotation Xrotation Zrotation
      JOINT Head
      {
       OFFSET 0.000000 9.711000 -0.028000
       CHANNELS 3 Yrotation Xrotation Zrotation
       End Site
       {
        OFFSET 0.000000 18.578700 -0.014800
       }
      }
     }
     JOINT RightCollar
     {
      OFFSET -3.157200 10.367500 0.000000
      CHANNELS 3 Yrotation Xrotation Zrotation
      JOINT RightShoulder
      {
       OFFSET -14.482500 0.000000 0.000000
       CHANNELS 3 Yrotation Xrotation Zrotation
       JOINT RightElbow
       {
        OFFSET 0.000000 -31.707800 0.000000
        CHANNELS 3 Yrotation Xrotation Zrotation
        JOINT RightWrist
        {
         OFFSET 0.000000 -25.659300 0.000000
         CHANNELS 3 Yrotation Xrotation Zrotation
         End Site
         {
          OFFSET 0.000000 -18.994300 0.000000
         }
        }
       }
      }
     }
     JOINT LeftCollar
     {
      OFFSET 3.157200 10.367500 0.000000
      CHANNELS 3 Yrotation Xrotation Zrotation
      JOINT LeftShoulder
      {
       OFFSET 14.482500 0.000000 0.000000
       CHANNELS 3 Yrotation Xrotation Zrotation
       JOINT LeftElbow
       {
        OFFSET 0.000000 -31.707800 0.000000
        CHANNELS 3 Yrotation Xrotation Zrotation
        JOINT LeftWrist
        {
         OFFSET 0.000000 -25.659300 0.000000
         CHANNELS 3 Yrotation Xrotation Zrotation
         End Site
         {
          OFFSET 0.000000 -18.994300 0.000000
         }
        }
       }
      }
     }
    }
   }
  }
 }
 JOINT RightHip
 {
  OFFSET -8.365600 -0.032100 -0.003200
  CHANNELS 3 Yrotation Xrotation Zrotation
  JOINT RightKnee
  {
   OFFSET 0.000000 -43.980000 0.003100
   CHANNELS 3 Yrotation Xrotation Zrotation
   JOINT RightAnkle
   {
    OFFSET 0.000000 -42.882800 0.005200
    CHANNELS 3 Yrotation Xrotation Zrotation
    JOINT RightToe
    {
     OFFSET 0.000000 -4.915500 10.826300
     CHANNELS 3 Yrotation Xrotation Zrotation
     End Site
     {
      OFFSET 0.000000 -1.517500 6.175900
     }
    }
   }
  }
 }
 JOINT LeftHip
 {
  OFFSET 8.365600 -0.032100 -0.003200
  CHANNELS 3 Yrotation Xrotation Zrotation
  JOINT LeftKnee
  {
   OFFSET 0.000000 -43.980000 0.003100
   CHANNELS 3 Yrotation Xrotation Zrotation
   JOINT LeftAnkle
   {
    OFFSET 0.000000 -42.882800 0.005200
    CHANNELS 3 Yrotation Xrotation Zrotation
    JOINT LeftToe
    {
     OFFSET 0.000000 -4.915500 10.826300
     CHANNELS 3 Yrotation Xrotation Zrotation
     End Site
     {
      OFFSET 0.000000 -1.517500 6.175900
     }
    }
   }
  }
 }
}
MOTION
Frames: 11
Frame Time: 0.008333
-10.373206 127.340235 29.846927 -179.990984 -41.299575 -12.832757 3.926902 15.277590 1.408357 0.358074 1.475091 0.089885 0.602300 2.474617 0.155994 3.451865 13.581457 1.201635 -1.367299 21.036217 0.806868 -1.644224 -3.341935 1.173605 7.987204 5.763411 -1.074803 5.485669 -20.102043 -18.383797 37.087802 -28.729468 -35.103163 -10.610257 -24.066230 -32.475523 -2.001753 11.347275 6.797734 -20.966658 -41.210851 1.384934 131.268424 -45.436072 -174.380866 10.267196 -1.269731 17.365080 2.621652 -36.733901 3.575616 -120.521651 79.428191 -113.965053 -1.338204 -17.109111 4.832179 0.000659 -0.010859 0.000299 -17.904430 -36.787475 14.640121 132.921874 77.873962 129.735737 -1.964459 -17.724317 -2.004544 0.001470 0.009189 0.000668
-10.376424 127.340246 29.854078 -179.942138 -41.344864 -12.867810 3.947443 15.280102 1.411342 0.359849 1.475952 0.089197 0.605149 2.475989 0.154909 3.465766 13.583363 1.196504 -1.361019 21.042569 0.821285 -1.640836 -3.334479 1.187556 8.012858 5.744576 -1.052615 5.545617 -20.152706 -18.395103 37.063843 -28.381933 -34.909577 -10.595642 -24.093471 -32.640190 -2.027977 11.360332 6.791261 -20.937885 -41.212832 1.365320 131.223929 -45.430488 -174.373616 10.229037 -1.260019 17.315621 2.616190 -36.675060 3.577695 -120.515906 79.455463 -113.934282 -1.356126 -17.114574 4.815349 0.004580 -0.011134 0.002079 -17.944945 -36.741665 14.638578 132.955879 77.873089 129.748620 -1.967240 -17.716764 -1.998215 0.002587 0.008826 0.001175
-10.380518 127.339718 29.861431 -179.887215 -41.384530 -12.901692 3.961190 15.277307 1.407708 0.361357 1.477015 0.088682 0.607672 2.477697 0.154133 3.477728 13.586252 1.192891 -1.355471 21.047741 0.833464 -1.637734 -3.328403 1.199320 8.037732 5.728992 -1.031856 5.603827 -20.206547 -18.410221 37.010079 -28.057887 -34.680400 -10.608245 -24.130491 -32.775734 -2.053797 11.371673 6.786188 -20.860708 -41.255037 1.292494 131.114433 -45.459656 -174.334698 10.194684 -1.250962 17.259533 2.589982 -36.624061 3.576912 -120.540092 79.480230 -113.945402 -1.371911 -17.116073 4.796916 0.007918 -0.014394 0.003594 -18.010545 -36.707686 14.636898 133.014467 77.869454 129.772963 -1.964908 -17.697558 -1.991283 -0.001452 0.002651 -0.000659
-10.384928 127.338266 29.869724 -179.839862 -41.417267 -12.929310 3.978173 15.265190 1.400735 0.362734 1.478247 0.088400 0.609990 2.479615 0.153745 3.488706 13.589697 1.191219 -1.350040 21.052134 0.843794 -1.645541 -3.314291 1.218687 8.063931 5.716864 -1.010056 5.660356 -20.264602 -18.427749 36.920105 -27.758347 -34.417523 -10.646709 -24.182940 -32.878732 -2.079517 11.381541 6.781613 -20.828575 -41.267357 1.251988 131.045695 -45.464037 -174.313903 10.161887 -1.245461 17.204522 2.569639 -36.577987 3.579469 -120.496804 79.476602 -113.896474 -1.365954 -17.130563 4.785936 0.011358 -0.014545 0.005156 -18.048239 -36.676792 14.630059 132.984434 77.878246 129.731530 -2.013716 -17.675707 -1.974652 -0.004409 0.001741 -0.002002
-10.388570 127.339105 29.875746 -179.779685 -41.465995 -12.970917 3.992264 15.270314 1.402351 0.340612 1.504148 0.095870 0.634917 2.456766 0.144643 3.497763 13.593126 1.189175 -1.345995 21.055942 0.851843 -1.674342 -3.282847 1.255538 8.092235 5.707672 -0.986088 5.712309 -20.325661 -18.444261 36.795326 -27.487580 -34.125671 -10.695882 -24.249131 -32.961847 -2.107186 11.390685 6.776961 -20.819658 -41.264736 1.231879 130.992916 -45.483341 -174.295641 10.136107 -1.272126 17.147848 2.537989 -36.510815 3.583613 -120.456271 79.478258 -113.851334 -1.366501 -17.135389 4.782091 0.010974 -0.016006 0.004981 -18.090155 -36.624176 14.624111 133.004866 77.878965 129.738257 -2.024004 -17.667661 -1.960677 -0.001972 0.002730 -0.000895
-10.393690 127.341727 29.879321 -179.695465 -41.527924 -13.021553 3.991403 15.293139 1.399792 0.317264 1.529552 0.101975 0.660669 2.434512 0.136942 3.505327 13.596943 1.187460 -1.345658 21.058840 0.856469 -1.666489 -3.279000 1.263170 8.121592 5.699241 -0.960904 5.762331 -20.385958 -18.460446 36.640527 -27.244977 -33.811635 -10.743592 -24.324685 -33.039568 -2.143057 11.415926 6.791922 -20.802535 -41.287207 1.198917 130.949692 -45.505976 -174.275950 10.125420 -1.273215 17.123267 2.485163 -36.409741 3.572528 -120.380575 79.490664 -113.780345 -1.355737 -17.148786 4.779230 0.003915 -0.012268 0.001777 -18.136591 -36.555353 14.607006 133.027663 77.883372 129.750814 -2.076655 -17.663675 -1.945423 -0.002789 0.002998 -0.001266
-10.398618 127.342762 29.884774 -179.626885 -41.578682 -13.064281 3.999494 15.301799 1.397901 0.320103 1.532293 0.105065 0.660380 2.435585 0.133895 3.488386 13.621939 1.198805 -1.330215 21.040380 0.840873 -1.635631 -3.313427 1.224257 8.174189 5.676512 -0.954763 5.819240 -20.448414 -18.477298 36.457849 -27.016921 -33.486446 -10.786887 -24.411783 -33.117244 -2.158706 11.420494 6.789663 -20.796519 -41.316411 1.171050 130.895411 -45.500477 -174.244945 10.101456 -1.244364 17.110798 2.443411 -36.334239 3.565372 -120.374071 79.487529 -113.774297 -1.348379 -17.161167 4.775718 0.002351 -0.012784 0.001067 -18.168868 -36.499101 14.588488 132.999779 77.885170 129.721747 -2.096073 -17.656196 -1.945387 -0.001362 0.004778 -0.000618
-10.402566 127.343594 29.890700 -179.560981 -41.626590 -13.111846 4.009098 15.306640 1.402249 0.355453 1.496182 0.091958 0.628115 2.476205 0.149029 3.507605 13.617891 1.195170 -1.341387 21.050160 0.850048 -1.637682 -3.314062 1.224455 8.157642 5.699572 -0.914763 5.927464 -20.530043 -18.506422 36.256887 -26.793224 -33.164771 -10.826704 -24.508695 -33.195450 -2.201711 11.442837 6.790779 -20.810562 -41.334460 1.162694 130.835333 -45.494749 -174.212313 10.074309 -1.248935 17.077450 2.400881 -36.269011 3.568115 -120.401482 79.479835 -113.795745 -1.345241 -17.169830 4.768601 0.007572 -0.017616 0.003437 -18.203776 -36.444579 14.577030 132.958126 77.888835 129.676296 -2.063169 -17.641984 -1.958077 0.002963 0.006262 0.001345
-10.406636 127.345204 29.895474 -179.486951 -41.679418 -13.164717 4.012659 15.319161 1.409087 0.367546 1.485772 0.088625 0.596554 2.513451 0.159851 3.543536 13.594326 1.185612 -1.351609 21.057407 0.855509 -1.638721 -3.316841 1.222081 8.201162 5.697173 -0.886875 5.980461 -20.584958 -18.521037 36.055153 -26.570712 -32.859724 -10.863492 -24.600696 -33.274846 -2.232261 11.439814 6.754748 -20.862530 -41.309994 1.196245 130.773231 -45.478005 -174.180639 10.059068 -1.300495 17.022701 2.349165 -36.183291 3.557838 -120.387706 79.463392 -113.770544 -1.308673 -17.193820 4.753317 0.008793 -0.016661 0.003991 -18.250890 -36.383617 14.572999 132.996485 77.892437 129.703286 -2.044818 -17.640493 -1.962076 0.006762 0.005522 0.003070
-10.411508 127.343380 29.903435 -179.447858 -41.709132 -13.189606 4.032808 15.306473 1.411806 0.368088 1.487239 0.089061 0.577167 2.536551 0.163310 3.556221 13.589837 1.187579 -1.346266 21.045127 0.845181 -1.654531 -3.298558 1.238090 8.265147 5.678212 -0.875737 6.040343 -20.635897 -18.538091 35.865280 -26.345609 -32.580760 -10.891057 -24.673837 -33.356464 -2.250872 11.442217 6.733601 -20.894037 -41.290599 1.222044 130.729089 -45.432299 -174.172157 10.040670 -1.316546 17.005736 2.323952 -36.128651 3.540205 -120.385628 79.477230 -113.762606 -1.313711 -17.204332 4.748573 0.004142 -0.012593 0.001880 -18.267135 -36.351510 14.558743 132.989315 77.892777 129.697815 -2.035134 -17.644159 -1.956126 0.007499 0.007075 0.003405
-10.416218 127.342188 29.910225 -179.399339 -41.740520 -13.221171 4.043691 15.299984 1.415119 0.368558 1.487858 0.089446 0.610255 2.506024 0.157706 3.529770 13.622623 1.201713 -1.348668 21.043855 0.837800 -1.647815 -3.309850 1.220797 8.303794 5.679215 -0.853856 6.116994 -20.691421 -18.556792 35.700333 -26.117309 -32.333627 -10.902605 -24.726114 -33.446419 -2.273586 11.459277 6.714254 -20.913968 -41.313149 1.222429 130.660426 -45.434465 -174.131329 10.023306 -1.308099 17.002199 2.309518 -36.051315 3.505385 -120.343093 79.515973 -113.696297 -1.309101 -17.228226 4.739224 -0.002779 0.001020 -0.001262 -18.288823 -36.317149 14.542128 133.004082 77.899481 129.715409 -2.028246 -17.641688 -1.955794 0.005542 0.008421 0.002516
